<?xml version="1.0" encoding="UTF-8" standalone="no"?>
<!-- Created with Inkscape (http://www.inkscape.org/) -->

<svg
   version="1.1"
   id="svg1"
   width="100"
   height="81"
   viewBox="0 0 100 81"
   sodipodi:docname="dogfinal.svg"
   inkscape:version="1.4 (86a8ad7, 2024-10-11)"
   xmlns:inkscape="http://www.inkscape.org/namespaces/inkscape"
   xmlns:sodipodi="http://sodipodi.sourceforge.net/DTD/sodipodi-0.dtd"
   xmlns="http://www.w3.org/2000/svg">
  <g
     inkscape:groupmode="layer"
     inkscape:label="Image"
     id="g1"
     style="opacity:1">
    <path
       style="fill:#e30000;fill-opacity:1;stroke-width:15.1181"
       d="m 60.52638,25.840491 c 0,0 -2.28589,-1.391411 -2.981595,1.590184 0,0 -0.596319,5.267484 -0.198773,7.95092 0,0 4.969325,12.522699 13.615951,13.914111 0,0 7.553374,4.571779 11.92638,9.441717 0,0 1.391411,-6.360736 3.776687,-10.336196 0,0 0.09939,-5.168098 -5.267485,-8.348466"
       id="path3" />
    <path
       style="opacity:1;fill:#000000;stroke-width:15.1181"
       d="m 60.228221,14.112883 c -2.087117,-0.894478 -2.385276,0.596319 -2.385276,0.596319 1.98773,0.695706 2.683435,3.379142 2.683435,3.379142 -2.981595,-1.490798 -3.180368,-0.695706 -3.180368,-0.695706 0.993865,0.29816 2.087117,2.28589 2.087117,2.28589 1.68957,2.981595 0.496932,8.249079 0.496932,8.249079 4.472393,7.752148 12.423313,11.230675 12.423313,11.230675 3.876074,1.292025 8.944785,5.168102 9.441718,5.068712 0.298159,-2.087117 -0.198773,-4.969325 -0.198773,-4.969325 C 81,31.207362 83.385276,28.921472 83.385276,28.921472 c 5.068712,4.373007 8.348466,4.074847 8.348466,4.074847 0,-2.385276 0.894479,-2.683436 0.894479,-2.683436 2.285889,2.385277 2.782822,5.963191 2.782822,5.963191 2.087116,-2.28589 1.192638,-4.27362 1.192638,-4.27362 l 1.093251,0.695706 c 1.093252,-6.460123 -0.695705,-9.143559 -0.695705,-9.143559 0.795092,0 1.888343,0.29816 1.888343,0.29816 1.68957,-4.373006 0.397546,-9.441718 0.397546,-9.441718 -0.894478,-2.882209 -2.484662,-4.074847 -2.484662,-4.074847 0.298159,-0.6957052 -0.29816,-2.1865027 -0.29816,-2.1865027 -1.98773,-0.4969326 -5.168098,0.397546 -5.168098,0.397546 0.397546,-0.9938651 -0.695705,-1.8883436 -0.695705,-1.8883436 -1.490798,1.4907976 -1.98773,1.6895706 -1.98773,1.6895706 -2.584049,1.0932515 -9.938651,2.4846627 -9.938651,2.4846627 0,-2.4846627 4.472393,-3.5779143 4.472393,-3.5779143 C 79.01227,6.0625767 76.825767,8.4478528 76.825767,8.4478528 76.925157,6.5595092 77.521472,5.8638037 77.521472,5.8638037 74.341104,6.7582822 72.949693,9.6404908 72.949693,9.6404908 72.75092,7.0564417 73.744785,5.9631902 73.744785,5.9631902 70.365644,8.0503067 69.968098,9.1435583 69.968098,9.1435583 68.576687,0.79509202 65.396319,0.19877301 65.396319,0.19877301 64.998773,4.4723926 63.209816,7.1558282 63.209816,7.1558282 58.83681,1.2920245 56.84908,2.4846626 56.84908,2.4846626 c 0,0 1.888343,2.7828221 2.087116,10.4355824 z"
       id="path1" />
    <path
       style="opacity:1;fill:#000000;stroke-width:15.1181"
       d="m 10.733743,18.088343 c 0,0 -0.596319,13.615952 5.068711,19.579142 0.695706,-0.09939 11.727607,4.571779 35.480981,0.298159 0,0 3.577915,-0.795092 5.863804,-3.080981 0,0 4.27362,9.143558 10.53497,11.826993 0,0 10.236809,5.565645 14.411042,11.131289 -0.496932,0.397546 -1.192638,2.385276 -4.571779,3.776687 0,0 -4.373006,2.683435 -4.571779,6.857669 0,0 -0.993865,3.97546 3.379141,6.957055 0,0 2.28589,0.894478 2.584049,2.584049 0,0 -0.298159,1.98773 -3.279754,1.788957 0,0 -9.441718,0.894478 -12.423313,-1.490798 0,0 -1.590184,-1.391411 -2.385276,-5.068711 0,0 -8.944785,2.385276 -18.386503,-0.198773 0,0 -19.380368,-4.373006 -23.455215,-5.366871 0,0 -3.577914,2.186503 -4.373006,6.360736 0,0 -0.198773,1.093251 0.198773,1.888343 0,0 2.385276,0.397546 3.279754,2.087117 0,0 1.391412,1.590184 -1.788957,1.98773 0,0 -5.863803,1.391411 -10.6343552,0.09939 0,0 -2.782822,-0.596323 -4.96932595,-8.447856 0,0 -1.292023,-11.230675 0.39754595,-17.293252 0,0 1.98773,-7.851534 9.3423312,-14.112883 0,0 -2.8822082,-7.652761 -6.8576682,-12.622086 0,0 2.981595,1.093252 6.062576,3.478528 0,0 -0.79509,-4.273621 1.0932532,-13.019633 z"
       id="path2"
       sodipodi:nodetypes="cccccccccccccccccccccccccc" />
    <path
       style="fill:#ffffff;fill-opacity:1;stroke-width:15.1181"
       d="m 78.478067,14.013497 c 0,0 -1.87592,-1.217484 -4.223926,-0.186349 -2.348006,1.031134 -1.267178,2.559202 -1.093252,2.745552 0.119878,0.128441 1.689571,1.664724 4.609049,0.670859 2.919479,-0.993865 1.428681,-2.931902 0.708129,-3.230062 z"
       id="path4"
       sodipodi:nodetypes="csssc" />
    <path
       style="fill:#000000;fill-opacity:1;stroke-width:8.44411"
       d="m 78.484454,14.452584 c 0,0 -0.859691,-0.828796 -1.935726,-0.126856 -1.076035,0.70194 -0.580718,1.742165 -0.501011,1.869023 0.05494,0.08744 0.77429,1.133252 2.112217,0.456683 1.337928,-0.676568 0.654731,-1.995879 0.32452,-2.19885 z"
       id="path4-8"
       sodipodi:nodetypes="csssc" />
    <path
       style="fill:#5e5e5e;fill-opacity:1;stroke-width:15.1181"
       d="m 79.558896,12.820859 c 0,0 -4.373006,-1.490798 -7.106135,-0.844785 0,-0.198773 5.466258,-1.788957 7.106135,0.844785 z"
       id="path5" />
  </g>
</svg>
